<svg id="Logo" xmlns="http://www.w3.org/2000/svg" viewBox="0 0 1687.45 375.64"><defs><style>.cls-1{fill:#fecd80;}.cls-2{fill:#7e0b0b;}</style></defs><rect class="cls-1" width="1687.45" height="375.64"/><path class="cls-2" d="M314.4,232.93V141.19a5.47,5.47,0,0,0-1.12-3.73,8.08,8.08,0,0,0-4-2.06v-2.55h60.48q19.88,0,30.52,4.53a43.49,43.49,0,0,1,22.57,21.76q5.81,11.93,5.8,27.88,0,28-17.24,42.73a43.34,43.34,0,0,1-16.93,8.86q-9.69,2.65-24.72,2.66H309.31v-2.55a8,8,0,0,0,4-2.06A5.47,5.47,0,0,0,314.4,232.93Zm23.66-9.53H367.8q14.24,0,21.39-3.9,15.35-8.33,15.35-32.48,0-17.47-8.27-26.77a25.49,25.49,0,0,0-11.13-7.34q-6.52-2.19-17.34-2.19H338.06Z"/><path class="cls-2" d="M505.29,131q28.37,0,45,15.33,17.57,16,17.56,41.45a53.89,53.89,0,0,1-8.42,29.07q-16.45,26.37-54,26.37-28.14,0-44.75-15.33a53.5,53.5,0,0,1-13.51-19.61A56.43,56.43,0,0,1,443.14,187a55.56,55.56,0,0,1,8.34-29.78Q467.46,131.43,505.29,131Zm.08,18.42q-15.51,0-25.84,9.21-12.24,10.86-12.25,28.48t12.25,28.48q10.34,9.21,26,9.21t25.92-9.21a36.26,36.26,0,0,0,9.38-13.4,38.51,38.51,0,0,0,2.86-14.6q0-18.4-12.24-29Q521,149.54,505.37,149.37Z"/><path class="cls-2" d="M611.6,167v65.92a5.52,5.52,0,0,0,1.11,3.73,8,8,0,0,0,4,2.06v2.55H584.83v-2.55a8,8,0,0,0,4-2.06,5.52,5.52,0,0,0,1.11-3.73V141.11a5.4,5.4,0,0,0-1.11-3.65,8.08,8.08,0,0,0-4-2.06v-2.55h36.85v2.55q-3.4.87-3.41,3.65,0,1.9,2.22,4.21l59.81,62.19V141.11a5.35,5.35,0,0,0-1.12-3.65,8.08,8.08,0,0,0-4-2.06v-2.55h31.85v2.55a8.13,8.13,0,0,0-4,2.06,5.4,5.4,0,0,0-1.11,3.65v91.82a5.52,5.52,0,0,0,1.11,3.73,8,8,0,0,0,4,2.06v2.55H672.91v-2.55c2.22-.47,3.34-1.61,3.34-3.41q0-1.59-3.9-5.56Z"/><path class="cls-2" d="M858.52,193.93H796V233a5.38,5.38,0,0,0,1.15,3.69,7.61,7.61,0,0,0,3.93,2v2.55H767.26v-2.55a8.09,8.09,0,0,0,4-2.06,5.38,5.38,0,0,0,1.11-3.65v-91.9a5.4,5.4,0,0,0-1.11-3.65,8.17,8.17,0,0,0-4-2.06v-2.55H801.1v2.55a7.47,7.47,0,0,0-4,2,5.5,5.5,0,0,0-1.11,3.69v34.95h62.5V141.11a5.55,5.55,0,0,0-1.11-3.69,7.51,7.51,0,0,0-4-2v-2.55h33.83v2.55a8.13,8.13,0,0,0-4,2.06,5.4,5.4,0,0,0-1.11,3.65V233a5.38,5.38,0,0,0,1.11,3.65,8,8,0,0,0,4,2.06v2.55H853.44v-2.55a7.69,7.69,0,0,0,3.93-2,5.38,5.38,0,0,0,1.15-3.69Z"/><path class="cls-2" d="M966.42,131q28.37,0,45,15.33,17.57,16,17.56,41.45a54,54,0,0,1-8.42,29.07q-16.45,26.37-54,26.37-28.14,0-44.75-15.33a53.38,53.38,0,0,1-13.51-19.61A56.43,56.43,0,0,1,904.27,187a55.56,55.56,0,0,1,8.34-29.78Q928.59,131.43,966.42,131Zm.08,18.42q-15.51,0-25.84,9.21-12.25,10.86-12.25,28.48t12.25,28.48q10.33,9.21,26,9.21t25.92-9.21a36.28,36.28,0,0,0,9.39-13.4,38.7,38.7,0,0,0,2.86-14.6q0-18.4-12.25-29Q982.16,149.54,966.5,149.37Z"/><path class="cls-2" d="M1074.71,223.4h66.64a5.52,5.52,0,0,0,3.73-1.11,8.26,8.26,0,0,0,2.06-4h2.54v28h-2.54a8.17,8.17,0,0,0-2.06-4,5.52,5.52,0,0,0-3.73-1.11H1046v-2.55a8,8,0,0,0,4-2.06,5.52,5.52,0,0,0,1.11-3.73V141.19a5.52,5.52,0,0,0-1.11-3.73,8.13,8.13,0,0,0-4-2.06v-2.55h33.83v2.55a7.51,7.51,0,0,0-4,2,5.67,5.67,0,0,0-1.11,3.77Z"/><path class="cls-2" d="M1166.12,232.93V141.19a5.52,5.52,0,0,0-1.11-3.73,8.08,8.08,0,0,0-4-2.06v-2.55h60.48q19.88,0,30.52,4.53a43.52,43.52,0,0,1,22.57,21.76q5.81,11.93,5.8,27.88,0,28-17.24,42.73a43.34,43.34,0,0,1-16.93,8.86q-9.71,2.65-24.72,2.66H1161v-2.55a8,8,0,0,0,4-2.06A5.52,5.52,0,0,0,1166.12,232.93Zm23.67-9.53h29.74q14.23,0,21.39-3.9,15.35-8.33,15.35-32.48,0-17.47-8.27-26.77a25.6,25.6,0,0,0-11.13-7.34q-6.52-2.19-17.34-2.19h-29.74Z"/><path class="cls-2" d="M1302.49,232.93V141.11a5.4,5.4,0,0,0-1.11-3.65,8.08,8.08,0,0,0-4-2.06v-2.55h33.83v2.55a7.51,7.51,0,0,0-4,2,5.55,5.55,0,0,0-1.11,3.69v91.82a5.57,5.57,0,0,0,1.15,3.77,7.69,7.69,0,0,0,3.93,2v2.55h-33.83v-2.55a8,8,0,0,0,4-2.06A5.52,5.52,0,0,0,1302.49,232.93Z"/><path class="cls-2" d="M1377.47,167v65.92a5.52,5.52,0,0,0,1.11,3.73,8,8,0,0,0,4,2.06v2.55H1350.7v-2.55a8,8,0,0,0,4-2.06,5.47,5.47,0,0,0,1.12-3.73V141.11a5.35,5.35,0,0,0-1.12-3.65,8.08,8.08,0,0,0-4-2.06v-2.55h36.86v2.55q-3.42.87-3.42,3.65,0,1.9,2.22,4.21l59.81,62.19V141.11a5.4,5.4,0,0,0-1.11-3.65,8.18,8.18,0,0,0-4-2.06v-2.55h31.84v2.55a8.13,8.13,0,0,0-4,2.06,5.4,5.4,0,0,0-1.11,3.65v91.82a5.52,5.52,0,0,0,1.11,3.73,8,8,0,0,0,4,2.06v2.55h-34.15v-2.55q3.35-.71,3.34-3.41,0-1.59-3.89-5.56Z"/><path class="cls-2" d="M1588.26,202.27h-26.77a5.35,5.35,0,0,0-3.69,1.11,8.39,8.39,0,0,0-2,4h-2.54V182.1h2.54a8.17,8.17,0,0,0,2,4,5.51,5.51,0,0,0,3.69,1.07h51.4v2.54a8.19,8.19,0,0,0-4,2.07,5.41,5.41,0,0,0-1.14,3.73v22.24a5.57,5.57,0,0,0,1.1,3.73,8,8,0,0,0,4,2.07v2Q1582,243.18,1553,243.17q-26.27,0-42.86-12.47Q1489.29,215,1489.3,187q0-26.06,18.58-41.46Q1525.52,131,1554.74,131a85.82,85.82,0,0,1,17.51,1.71,120.36,120.36,0,0,1,18.71,5.75c3.6,1.43,6.16,2.15,7.7,2.15a6.55,6.55,0,0,0,3.89-1.83l2.23,1.19-12.75,26-2.3-1.18A8.7,8.7,0,0,0,1589,161a10.16,10.16,0,0,0-2.86-2.81q-4.83-3.65-14.2-6.21a67.2,67.2,0,0,0-17.71-2.57q-17,0-28.18,9.53-12.61,10.78-12.62,28.48,0,17.13,12.31,27.69,11.28,9.68,29.71,9.68a76.61,76.61,0,0,0,17.71-2.07,57.47,57.47,0,0,0,15.09-5.64Z"/><path class="cls-2" d="M223.71,220c-10.48,54-33.22,99.1-59.48,124.08,17-26.31,30.53-66,38.82-108.66,15.43-79.39-4.41-150-44.31-157.74C130.08,72.09,96.76,99,74.57,144c22.73-64.35,63-106.72,99.59-99.64C218.7,53,240.88,131.59,223.71,220Z"/><path class="cls-2" d="M192.14,256.1c-7.4,38.1-23.46,70-42,87.6,12-18.57,21.55-46.56,27.41-76.71,10.89-56.06-3.11-105.92-31.28-111.38-20.24-3.92-43.76,15.06-59.43,46.85,16-45.43,44.49-75.35,70.31-70.35C188.6,138.2,204.26,193.7,192.14,256.1Z"/><path class="cls-2" d="M165.56,289.46C161,313.2,150.94,333.05,139.4,344c7.46-11.57,13.42-29,17.07-47.8,6.79-34.92-1.94-66-19.49-69.39-12.61-2.44-27.27,9.38-37,29.19,10-28.31,27.72-47,43.81-43.83C163.36,216,173.11,250.58,165.56,289.46Z"/></svg>